<svg width="101" height="39" viewBox="0 0 101 39" fill="none" xmlns="http://www.w3.org/2000/svg">
<path d="M88.8616 37.8663H85.1017V19.0667H88.8616V28.4563L95.8678 19.0667H100.141L94.2036 26.9975L100.141 37.8663H95.8678L91.7381 30.2643L88.8616 34.1064V37.8663Z" fill="#FBFBFB"/>
<path d="M51.0569 37.8663H47.0299L39.7771 25.4976V37.8663H36.0172V19.0667H40.0442L47.297 31.456V19.0667H51.0569V37.8663Z" fill="#FBFBFB"/>
<path d="M77.4791 19.0667H73.7397V5.65016C73.7397 5.38306 73.6781 5.13651 73.5753 4.91051C73.4726 4.6845 73.3493 4.47904 73.1644 4.31467C73.0001 4.12976 72.7946 4.00648 72.5686 3.90375C72.3426 3.80102 72.096 3.75993 71.8289 3.75993C71.5618 3.75993 71.3153 3.80102 71.0893 3.90375C70.8633 4.00648 70.6578 4.12976 70.4934 4.31467C70.3291 4.47904 70.2058 4.6845 70.1031 4.91051C70.0003 5.13651 69.9592 5.38306 69.9592 5.65016V19.0667H66.1993V5.65016C66.1993 5.38306 66.1582 5.13651 66.0555 4.91051C65.9528 4.6845 65.8295 4.47904 65.6446 4.31467C65.4802 4.12976 65.2747 4.00648 65.0487 3.90375C64.8227 3.80102 64.5762 3.75993 64.3091 3.75993C64.042 3.75993 63.7954 3.80102 63.5694 3.90375C63.3434 4.00648 63.138 4.12976 62.9736 4.31467C62.8092 4.47904 62.6859 4.6845 62.5832 4.91051C62.4805 5.13651 62.4394 5.38306 62.4394 5.65016V19.0667H58.6795V5.65016C58.6795 4.86941 58.8233 4.1503 59.1109 3.45174C59.3986 2.75317 59.8095 2.15734 60.3232 1.66423C60.8368 1.15058 61.4326 0.739661 62.1107 0.452017C62.8092 0.164372 63.5283 3.8147e-06 64.3091 3.8147e-06C65.0077 3.8147e-06 65.6857 0.123281 66.3226 0.369833C66.9595 0.616385 67.5554 0.965667 68.069 1.43823C68.5827 0.965667 69.158 0.616385 69.7949 0.369833C70.4318 0.123281 71.1098 3.8147e-06 71.8084 3.8147e-06C72.5891 3.8147e-06 73.3082 0.143826 74.0068 0.452017C74.7054 0.739661 75.3012 1.15058 75.7943 1.66423C76.308 2.17788 76.7189 2.77372 77.0065 3.45174C77.2942 4.12976 77.4585 4.86941 77.4585 5.65016V19.0667H77.4791Z" fill="#FBFBFB"/>
<path d="M30.2849 19.0667H17.1354V0.287651H20.8953V15.3068H30.2849V19.0667Z" fill="#FBFBFB"/>
<path d="M15.0397 13.4371C15.0397 14.2179 14.8959 14.937 14.5877 15.6355C14.3 16.3136 13.8891 16.9094 13.3755 17.423C12.8618 17.9367 12.266 18.3271 11.588 18.6353C10.9099 18.9229 10.1703 19.0873 9.38954 19.0873H0V0.287651H9.38954C10.1703 0.287651 10.8894 0.431473 11.588 0.739664C12.266 1.02731 12.8618 1.43823 13.3755 1.95188C13.8891 2.46553 14.3 3.06137 14.5877 3.73938C14.8753 4.4174 15.0397 5.15706 15.0397 5.91726C15.0397 6.26655 14.9986 6.61583 14.8959 6.98566C14.7931 7.35549 14.6699 7.70477 14.485 8.05405C14.3 8.40333 14.0946 8.71152 13.848 8.97862C13.6015 9.26627 13.3344 9.49227 13.0262 9.67719C13.3344 9.84155 13.6015 10.0676 13.848 10.3552C14.0946 10.6429 14.3 10.951 14.485 11.2798C14.6699 11.6291 14.7931 11.9783 14.8753 12.3482C14.9986 12.7385 15.0397 13.0878 15.0397 13.4371ZM3.78047 15.3068H9.41008C9.67718 15.3068 9.92373 15.2657 10.1497 15.163C10.3757 15.0602 10.5812 14.937 10.7456 14.7726C10.9305 14.5877 11.0538 14.4028 11.1565 14.1768C11.2592 13.9508 11.3003 13.7042 11.3003 13.4371C11.3003 13.17 11.2592 12.9235 11.1565 12.6975C11.0538 12.4714 10.9305 12.266 10.7456 12.1016C10.5812 11.9167 10.3757 11.7934 10.1497 11.6907C9.92373 11.588 9.67718 11.5469 9.41008 11.5469H3.78047V15.3068ZM3.78047 7.8075H9.41008C9.67718 7.8075 9.92373 7.76641 10.1497 7.66368C10.3757 7.56095 10.5812 7.43767 10.7456 7.2733C10.9305 7.08839 11.0538 6.90347 11.1565 6.67747C11.2592 6.45146 11.3003 6.18436 11.3003 5.93781C11.3003 5.67071 11.2592 5.42416 11.1565 5.19815C11.0538 4.97215 10.9305 4.76669 10.7456 4.60232C10.5812 4.4174 10.3757 4.29413 10.1497 4.1914C9.92373 4.08867 9.67718 4.04758 9.41008 4.04758H3.78047V7.8075Z" fill="#FBFBFB"/>
<path d="M34.1475 0.0205536C38.0924 0.0205536 41.2975 3.22573 41.2975 7.17057C41.2975 11.1154 38.0924 14.3206 34.1475 14.3206C30.2027 14.3206 26.9975 11.1154 26.9975 7.17057C26.9975 3.22573 30.2027 0.0205536 34.1475 0.0205536ZM34.1475 3.71884C32.2367 3.71884 30.6958 5.25979 30.6958 7.17057C30.6958 9.08135 32.2367 10.6223 34.1475 10.6223C36.0583 10.6223 37.5992 9.08135 37.5992 7.17057C37.5992 5.28034 36.0583 3.71884 34.1475 3.71884Z" fill="#FBFBFB"/>
<path d="M60.5492 23.7923C64.494 23.7923 67.6992 26.9975 67.6992 30.9423C67.6992 34.8872 64.494 38.0924 60.5492 38.0924C56.6043 38.0924 53.3991 34.8872 53.3991 30.9423C53.3991 26.9975 56.6043 23.7923 60.5492 23.7923ZM60.5492 27.5111C58.6384 27.5111 57.0974 29.0521 57.0974 30.9629C57.0974 32.8737 58.6384 34.4146 60.5492 34.4146C62.4599 34.4146 64.0009 32.8737 64.0009 30.9629C64.0009 29.0521 62.4599 27.5111 60.5492 27.5111Z" fill="#FBFBFB"/>
<path d="M49.1872 0.0205536C53.132 0.0205536 56.3372 3.22573 56.3372 7.17057C56.3372 11.1154 53.132 14.3206 49.1872 14.3206C45.2424 14.3206 42.0372 11.1154 42.0372 7.17057C42.0372 3.22573 45.2424 0.0205536 49.1872 0.0205536ZM49.1872 3.71884C47.2764 3.71884 45.7355 5.25979 45.7355 7.17057C45.7355 9.08135 47.2764 10.6223 49.1872 10.6223C51.098 10.6223 52.6389 9.08135 52.6389 7.17057C52.6389 5.28034 51.098 3.71884 49.1872 3.71884Z" fill="#FBFBFB"/>
<path d="M75.6094 23.7923C79.5542 23.7923 82.7594 26.9975 82.7594 30.9423C82.7594 34.8872 79.5542 38.0924 75.6094 38.0924C71.6646 38.0924 68.4594 34.8872 68.4594 30.9423C68.4594 26.9975 71.6646 23.7923 75.6094 23.7923ZM75.6094 27.5111C73.6986 27.5111 72.1577 29.0521 72.1577 30.9629C72.1577 32.8737 73.6986 34.4146 75.6094 34.4146C77.5202 34.4146 79.0611 32.8737 79.0611 30.9629C79.0611 29.0521 77.4996 27.5111 75.6094 27.5111Z" fill="#FBFBFB"/>
</svg>
