<svg width="100" height="38" viewBox="0 0 100 38" fill="none" xmlns="http://www.w3.org/2000/svg">
<path d="M88.8107 37.316H85.076V18.6581H88.8107V27.9873L95.7587 18.6581H100L94.106 26.53L100 37.316H95.7587L91.66 29.7693L88.8107 33.582V37.316Z" fill="#183512"></path>
<path d="M51.1476 37.55H47.1532L39.958 25.268V37.55H36.2239V18.8923H40.2183L47.4134 31.188V18.8923H51.1476V37.55Z" fill="#183512"></path>
<path d="M77.0747 18.9234H73.3533V5.6C73.3533 5.3398 73.3013 5.09687 73.1973 4.87133C73.102 4.64587 72.9673 4.45067 72.794 4.28587C72.6287 4.1124 72.434 3.97793 72.208 3.88253C71.9827 3.78713 71.74 3.7394 71.48 3.7394C71.2193 3.7394 70.9767 3.78713 70.7513 3.88253C70.5253 3.97793 70.326 4.1124 70.1527 4.28587C69.988 4.45067 69.8573 4.64587 69.762 4.87133C69.6667 5.09687 69.6193 5.3398 69.6193 5.6V18.9234H65.8847V5.6C65.8847 5.3398 65.8373 5.09687 65.742 4.87133C65.6467 4.64587 65.512 4.45067 65.3387 4.28587C65.1733 4.1124 64.9787 3.97793 64.7527 3.88253C64.5273 3.78713 64.2847 3.7394 64.024 3.7394C63.764 3.7394 63.5213 3.78713 63.296 3.88253C63.07 3.97793 62.8707 4.1124 62.6973 4.28587C62.5327 4.45067 62.402 4.64587 62.3067 4.87133C62.2113 5.09687 62.164 5.3398 62.164 5.6V18.9234H58.4293V5.6C58.4293 4.828 58.5727 4.10374 58.8587 3.42714C59.154 2.74187 59.5527 2.14774 60.056 1.6446C60.568 1.13287 61.162 0.733803 61.8387 0.447603C62.524 0.152669 63.252 0.00519943 64.024 0.00519943C64.718 0.00519943 65.386 0.131001 66.028 0.382534C66.67 0.625401 67.2467 0.981069 67.7587 1.44947C68.27 0.981069 68.8427 0.625401 69.476 0.382534C70.118 0.131001 70.786 0.00519943 71.48 0.00519943C72.252 0.00519943 72.976 0.152669 73.6527 0.447603C74.338 0.733803 74.932 1.13287 75.4353 1.6446C75.9467 2.14774 76.346 2.74187 76.632 3.42714C76.9267 4.10374 77.0747 4.828 77.0747 5.6V18.9234Z" fill="#183512"></path>
<path d="M30.8104 18.6579H17.7472V0H21.4814V14.9237H30.8104V18.6579Z" fill="#183512"></path>
<path d="M14.9237 13.0632C14.9237 13.8352 14.7763 14.5595 14.4814 15.2361C14.1865 15.9127 13.7831 16.5068 13.2713 17.0186C12.7683 17.5217 12.1784 17.9207 11.5018 18.2156C10.8253 18.5105 10.1009 18.658 9.329 18.658H0V6.86646e-05H9.329C10.1009 6.86646e-05 10.8253 0.147534 11.5018 0.442401C12.1784 0.737334 12.7683 1.14067 13.2713 1.65247C13.7831 2.15553 14.1865 2.7454 14.4814 3.42193C14.7763 4.09853 14.9237 4.8228 14.9237 5.5948C14.9237 5.9418 14.8761 6.2974 14.7806 6.66174C14.6852 7.02607 14.5507 7.37734 14.3773 7.71567C14.2038 8.05394 13.9956 8.36187 13.7527 8.6394C13.5099 8.917 13.241 9.14687 12.9461 9.329C13.2497 9.4938 13.5229 9.71934 13.7657 10.0056C14.0087 10.2831 14.2168 10.5911 14.3903 10.9294C14.5638 11.2677 14.6939 11.6233 14.7806 11.9963C14.8761 12.3606 14.9237 12.7163 14.9237 13.0632ZM3.7342 14.9238H9.329C9.5892 14.9238 9.83207 14.8761 10.0576 14.7807C10.2831 14.6853 10.4783 14.5551 10.6431 14.3903C10.8166 14.2169 10.951 14.0173 11.0465 13.7918C11.1419 13.5663 11.1895 13.3234 11.1895 13.0632C11.1895 12.803 11.1419 12.5601 11.0465 12.3346C10.951 12.1091 10.8166 11.9139 10.6431 11.7491C10.4783 11.5756 10.2831 11.4411 10.0576 11.3457C9.83207 11.2503 9.5892 11.2026 9.329 11.2026H3.7342V14.9238ZM3.7342 7.4684H9.329C9.5892 7.4684 9.83207 7.42074 10.0576 7.32534C10.2831 7.22987 10.4783 7.0998 10.6431 6.93493C10.8166 6.76147 10.951 6.562 11.0465 6.33647C11.1419 6.10227 11.1895 5.85507 11.1895 5.5948C11.1895 5.3346 11.1419 5.09174 11.0465 4.8662C10.951 4.64067 10.8166 4.44553 10.6431 4.28067C10.4783 4.1072 10.2831 3.9728 10.0576 3.87734C9.83207 3.78194 9.5892 3.7342 9.329 3.7342H3.7342V7.4684Z" fill="#183512"></path>
<path d="M75.754 23.9873C76.3647 23.9873 76.9553 24.0687 77.524 24.23C78.0933 24.386 78.6233 24.6073 79.114 24.8947C79.6053 25.1827 80.0547 25.53 80.462 25.9373C80.8687 26.3447 81.2167 26.7933 81.504 27.284C81.7913 27.7753 82.0133 28.306 82.1687 28.8747C82.3307 29.444 82.4113 30.0333 82.4113 30.644C82.4113 31.2553 82.3307 31.8453 82.1687 32.4147C82.0133 32.9773 81.7913 33.5073 81.504 34.0047C81.2167 34.4953 80.8693 34.9447 80.462 35.352C80.0547 35.7593 79.6053 36.11 79.114 36.4033C78.6233 36.6907 78.0933 36.9127 77.524 37.068C76.9553 37.23 76.3647 37.3107 75.754 37.3107C75.1433 37.3107 74.5533 37.23 73.9847 37.068C73.4213 36.9127 72.8913 36.6907 72.394 36.4033C71.9027 36.11 71.4533 35.7593 71.0467 35.352C70.6393 34.9447 70.2893 34.4953 69.9953 34.0047C69.8193 33.6993 69.6667 33.3827 69.538 33.0533C68.4733 34.4993 67.4667 35.4713 66.45 36.112C64.68 37.2273 63.002 37.238 61.6033 37.2933C61.4367 37.3047 61.2687 37.3107 61.0993 37.3107C60.4473 37.3107 59.818 37.23 59.2113 37.068C58.6107 36.9127 58.0453 36.6907 57.5153 36.4033C56.9913 36.11 56.512 35.7593 56.0773 35.352C55.6433 34.9447 55.2693 34.4953 54.9567 34.0047C54.65 33.5073 54.41 32.9773 54.238 32.4147C54.072 31.8453 53.9887 31.2553 53.9887 30.644C53.9887 30.0333 54.072 29.444 54.238 28.8747C54.41 28.306 54.65 27.7753 54.9567 27.284C55.2693 26.7933 55.6433 26.3447 56.0773 25.9373C56.512 25.53 56.9913 25.1827 57.5153 24.8947C58.0453 24.6073 58.6107 24.386 59.2113 24.23C59.818 24.0687 60.4473 23.9873 61.0993 23.9873C61.7507 23.9873 62.38 24.0687 62.9873 24.23C63.594 24.386 64.1593 24.6073 64.6833 24.8947C65.2067 25.1827 65.686 25.53 66.1207 25.9373C66.5547 26.3447 66.9253 26.7933 67.232 27.284C67.5387 27.7753 67.7753 28.306 67.9413 28.8747C68.082 29.3373 68.1633 29.8147 68.1893 30.3053C68.708 29.496 69.2687 28.5267 69.8767 27.3627L69.9347 27.3927C69.9547 27.356 69.9747 27.32 69.9953 27.284C70.2887 26.7933 70.6393 26.3447 71.0467 25.9373C71.4533 25.53 71.9033 25.1827 72.394 24.8947C72.8913 24.6073 73.4213 24.386 73.9847 24.23C74.5533 24.0687 75.1433 23.9873 75.754 23.9873ZM61.0993 26.548C60.492 26.548 59.9233 26.656 59.3933 26.8713C58.8633 27.0873 58.3993 27.3807 58.0033 27.752C57.6073 28.1173 57.2947 28.5513 57.0647 29.0547C56.8347 29.5513 56.7193 30.0813 56.7193 30.644C56.7193 31.2073 56.8347 31.738 57.0647 32.2347C57.2947 32.726 57.6073 33.1573 58.0033 33.5287C58.3993 33.9 58.8633 34.1933 59.3933 34.4087C59.9233 34.624 60.492 34.732 61.0993 34.732C61.142 34.732 61.1853 34.73 61.228 34.7287L61.224 34.6427C61.5853 34.6253 61.9147 34.6113 62.2207 34.5953C62.4167 34.546 62.608 34.4847 62.7953 34.4087C63.332 34.1933 63.7953 33.9 64.1853 33.5287C64.5813 33.1573 64.894 32.726 65.124 32.2347C65.354 31.738 65.4687 31.2073 65.4687 30.644C65.4687 30.0813 65.354 29.5513 65.124 29.0547C64.894 28.5513 64.5813 28.1173 64.1853 27.752C63.7953 27.3807 63.332 27.0873 62.7953 26.8713C62.2647 26.656 61.6993 26.548 61.0993 26.548ZM75.754 26.548C75.1853 26.548 74.652 26.656 74.1553 26.8713C73.658 27.0873 73.224 27.3807 72.8527 27.752C72.6033 27.9967 72.39 28.2733 72.2113 28.5807L72.2393 28.5953C72.1247 28.8147 72.01 29.0287 71.8973 29.2373C71.7313 29.6807 71.6487 30.15 71.6487 30.644C71.6487 31.2073 71.7567 31.738 71.972 32.2347C72.188 32.726 72.4813 33.1573 72.8527 33.5287C73.224 33.9 73.658 34.1933 74.1553 34.4087C74.652 34.624 75.1853 34.732 75.754 34.732C76.3173 34.732 76.8473 34.624 77.3447 34.4087C77.8473 34.1933 78.282 33.9 78.6473 33.5287C79.0187 33.1573 79.312 32.726 79.5273 32.2347C79.7433 31.738 79.8513 31.2073 79.8513 30.644C79.8513 30.0813 79.7433 29.5513 79.5273 29.0547C79.312 28.5513 79.0187 28.1173 78.6473 27.752C78.282 27.3807 77.8473 27.0873 77.3447 26.8713C76.8473 26.656 76.3173 26.548 75.754 26.548Z" fill="#183512"></path>
<path d="M49.3014 0C49.9123 0 50.5021 0.0811357 51.0709 0.242869C51.6399 0.398536 52.1703 0.620065 52.6615 0.907532C53.1527 1.20093 53.6013 1.55127 54.0087 1.95833C54.416 2.3656 54.7633 2.81493 55.0507 3.306C55.338 3.80313 55.56 4.33347 55.7153 4.89647C55.8773 5.4654 55.958 6.0552 55.9587 6.666C55.9587 7.27693 55.8773 7.8672 55.7153 8.4362C55.56 9.00506 55.338 9.535 55.0507 10.0261C54.7633 10.5172 54.416 10.9664 54.0087 11.3737C53.6013 11.7809 53.1527 12.1286 52.6615 12.416C52.1703 12.7035 51.6399 12.925 51.0709 13.0807C50.5021 13.2424 49.9123 13.3235 49.3014 13.3236C48.6905 13.3236 48.1003 13.2425 47.5313 13.0807C46.9683 12.9251 46.4385 12.7034 45.9414 12.416C45.4503 12.1285 45.001 11.7809 44.5937 11.3737C44.1865 10.9664 43.8358 10.5172 43.5423 10.0261C43.4588 9.8834 43.3815 9.73706 43.3086 9.58786L43.2891 9.60093C42.7163 8.70646 42.1953 7.93267 41.7175 7.2624C41.6793 7.663 41.604 8.05446 41.4883 8.4362C41.3222 9.00513 41.0853 9.53493 40.7787 10.0261C40.472 10.5171 40.1017 10.9665 39.6673 11.3737C39.2329 11.781 38.7537 12.1285 38.2298 12.416C37.706 12.7035 37.1407 12.925 36.5339 13.0807C35.9269 13.2425 35.2975 13.3235 34.6459 13.3236C33.9942 13.3236 33.3647 13.2425 32.7578 13.0807C32.1573 12.925 31.5921 12.7035 31.0619 12.416C30.538 12.1285 30.0588 11.781 29.6243 11.3737C29.1899 10.9664 28.8163 10.5172 28.5033 10.0261C28.1967 9.535 27.957 9.00513 27.7845 8.4362C27.6184 7.8672 27.5351 7.27693 27.5351 6.666C27.5352 6.0552 27.6185 5.4654 27.7845 4.89647C27.957 4.33347 28.1966 3.80313 28.5033 3.306C28.8163 2.81493 29.19 2.36553 29.6243 1.95833C30.0587 1.55113 30.5381 1.201 31.0619 0.907532C31.5921 0.620065 32.1573 0.398536 32.7578 0.242869C33.3647 0.0811357 33.9942 0 34.6459 0C34.8521 0 35.0561 0.0085345 35.2578 0.0247345C36.7535 0.0958678 38.2145 0.266731 39.7949 1.32553C40.8062 2.00313 41.8292 3.01867 42.9909 4.50973C43.1375 4.08907 43.3215 3.6878 43.5423 3.306C43.8358 2.81487 44.1865 2.3656 44.5937 1.95833C45.001 1.55113 45.4504 1.201 45.9414 0.907532C46.4385 0.620132 46.9683 0.398536 47.5313 0.242869C48.1003 0.0811357 48.6905 0 49.3014 0ZM34.5918 2.5788C34.0051 2.585 33.4546 2.69253 32.9401 2.90167C32.4099 3.11733 31.9462 3.4112 31.5501 3.78253C31.1542 4.1538 30.8413 4.58514 30.6113 5.0762C30.3814 5.5732 30.2663 6.10313 30.2663 6.666C30.2663 7.229 30.3813 7.7594 30.6113 8.25654C30.8413 8.75953 31.1541 9.19393 31.5501 9.55926C31.9462 9.9306 32.4099 10.2239 32.9401 10.4395C33.4703 10.6551 34.0389 10.763 34.6459 10.763C35.2463 10.763 35.8116 10.655 36.3418 10.4395C36.8785 10.2239 37.3421 9.9306 37.7318 9.55926C38.1278 9.19393 38.4406 8.75953 38.6706 8.25654C38.9005 7.7594 39.0156 7.229 39.0156 6.666C39.0156 6.10313 38.9005 5.5732 38.6706 5.0762C38.4407 4.58514 38.1277 4.1538 37.7318 3.78253C37.3421 3.4112 36.8785 3.11733 36.3418 2.90167C36.1796 2.83573 36.0139 2.7808 35.8451 2.735C35.4721 2.70127 35.06 2.68167 34.5892 2.6634L34.5918 2.5788ZM49.3014 2.57814C48.7325 2.57814 48.1989 2.68607 47.7018 2.90167C47.2047 3.11733 46.7704 3.4112 46.3991 3.78253C46.0279 4.15386 45.7345 4.58514 45.5189 5.0762C45.3033 5.5732 45.1953 6.10313 45.1953 6.666C45.1953 7.1236 45.2677 7.5592 45.4101 7.97333C45.4507 8.03633 45.4922 8.0994 45.5332 8.1634L45.4915 8.18947C45.5007 8.21167 45.5093 8.2344 45.5189 8.25654C45.7345 8.75953 46.0278 9.19393 46.3991 9.55926C46.7704 9.93053 47.2047 10.2239 47.7018 10.4395C48.1989 10.6551 48.7325 10.763 49.3014 10.763C49.8643 10.763 50.3943 10.655 50.8913 10.4395C51.3943 10.2239 51.8287 9.93053 52.194 9.55926C52.5653 9.19393 52.8587 8.75953 53.074 8.25654C53.29 7.7594 53.398 7.229 53.398 6.666C53.398 6.10307 53.29 5.5732 53.074 5.0762C52.8587 4.58514 52.5653 4.15386 52.194 3.78253C51.8287 3.4112 51.3944 3.11733 50.8913 2.90167C50.3943 2.68613 49.8643 2.57814 49.3014 2.57814Z" fill="#183512"></path>
</svg>